<svg width="40" height="17" viewBox="0 0 512 161" fill="none" xmlns="http://www.w3.org/2000/svg" preserveAspectRatio="xMidYMid meet" aria-label="Shopify">
  <path d="M130.7 32.9c-.1-.9-.9-1.3-1.5-1.4-.6-.1-13.3-1-13.3-1s-10.3-10.1-11.4-11.2c-1.1-1.1-3.1-.8-3.9-.5 0 0-2 .6-5.3 1.6-.5-1.6-1.2-3.5-2.2-5.5-3.1-6.1-7.7-9.3-13.2-9.3h-.5C78.3 3.5 76.5 2 74.5 2c-19.9 0-29.4 24.8-32.4 37.4-8.3 2.6-14.2 4.4-14.8 4.6-4.5 1.4-4.6 1.5-5.2 5.6-.4 3.1-11.8 91-11.8 91l88.8 16.5 47.6-10.7s-15.7-106.7-15.9-107.3c-.1-.3-.1-.5-.1-.5zM83.2 10.9v1.2c-5.4 1.7-11.3 3.5-17.1 5.3 2.9-11.1 8.5-16.5 13.5-18.4 1.3 3.7 2.5 8.4 3.6 11.9zm-11 31.2c-.7-.4-1.4-.6-2-.6-3.8 0-5.7 4.8-5.7 10.2 0 6.7 2.6 11.1 6.8 11.1 2.7 0 4.8-1.4 6.5-3.2V45.1c-2.1-1.4-3.9-2.9-5.6-3zm-8.3-35.4c.9-3.6 2.9-8 5.8-10.6.5-.5 1.1-1 1.8-1.5-5.5 2.3-11.1 9.1-13.4 20.8l7.8-2.5c0-2.1.1-4.2.3-6.2zm27.3-2.7c-1 .3-2.1.7-3.2 1 0-.3-.1-.6-.1-.8 0-3.2-.4-5.9-1.1-8.2 2.3 1.4 4 3.8 5.2 7.5-.3.2-.6.3-.8.5zm-1.3 4.2c-5.2 1.6-10.9 3.4-16.5 5.2.3-1.2.6-2.3 1.1-3.3 1.3-3.6 3.8-7.3 7.2-9.6 1.4-1 3-1.8 4.7-2.4.6 2.4 1 5.4 1.3 8.2.7-.1 1.4-.1 2.2-.1z" fill="#96BF48"/>
  <path d="M265.1 66.8c-5.8 0-9.8 2.8-9.8 7.4 0 5.1 4.3 6.8 9.1 8.8 6.9 3 10.5 6.2 10.5 12.4 0 9.7-7.4 15.5-17.5 15.5-6.9 0-12.7-2.3-16.1-5.2l2.3-7.6c3.4 2.8 7.8 4.9 13.8 4.9 5.8 0 10.1-2.6 10.1-7.9 0-5-3.9-7.1-9.1-9.2-6.7-2.9-10.6-6.1-10.6-12.2 0-9.1 7-15.1 16.9-15.1 6 0 10.6 1.7 13.8 3.6l-2.5 7.3c-2.4-1.5-6.1-3.4-10.9-3.4z" fill="#96BF48"/>
</svg>
