<svg width="40" height="17" viewBox="0 0 88 22" fill="none" xmlns="http://www.w3.org/2000/svg" preserveAspectRatio="xMidYMid meet" aria-label="Square">
  <path d="M7.5 0h5c.8 0 1.5.7 1.5 1.5v5c0 .8-.7 1.5-1.5 1.5h-5C6.7 8 6 7.3 6 6.5v-5C6 .7 6.7 0 7.5 0z" fill="#000000"/>
  <path d="M20.3 11.8c-1.5-.3-2.2-.8-2.2-1.6 0-.9.8-1.5 2.1-1.5 1.2 0 2.1.5 2.8 1.1l1.3-1.9c-1-.9-2.4-1.4-4.1-1.4-2.6 0-4.4 1.5-4.4 3.7 0 2.2 1.4 3.1 3.7 3.6 1.5.3 2.2.8 2.2 1.7 0 .9-.9 1.5-2.3 1.5-1.5 0-2.6-.6-3.5-1.4l-1.4 1.9c1.2 1.1 2.9 1.7 4.9 1.7 2.8 0 4.7-1.5 4.7-3.8 0-2.3-1.5-3.2-3.8-3.6zm13.2-1.1c0 3.9-2.7 6.5-6.7 6.5s-6.7-2.6-6.7-6.5c0-3.9 2.7-6.5 6.7-6.5s6.7 2.6 6.7 6.5zm-10.9 0c0 2.6 1.5 4.3 4.2 4.3 2.7 0 4.2-1.7 4.2-4.3 0-2.6-1.5-4.3-4.2-4.3-2.7 0-4.2 1.7-4.2 4.3z" fill="#000000"/>
</svg>
