<svg xmlns="http://www.w3.org/2000/svg" width="80" height="80" viewBox="0 0 80 80" role="img" aria-label="Meta Ads logo">
  <path d="M10 49c0-17 8-29 16-29 8 0 14 10 24 27 3 5 5 8 8 8 5 0 8-6 8-14 0-10-4-18-11-24" fill="none" stroke="#0866FF" stroke-width="6" stroke-linecap="round" stroke-linejoin="round"/>
  <path d="M70 49c0-17-8-29-16-29-8 0-14 10-24 27-3 5-5 8-8 8-5 0-8-6-8-14 0-10 4-18 11-24" fill="none" stroke="#0866FF" stroke-width="6" stroke-linecap="round" stroke-linejoin="round"/>
</svg>
